:SAMPLES-PER-SECOND 30
:FRAME-RANGE 1-1390
:FULLY-SPECIFIED
:DEGREES
696
root  29.4856 36.0782 -49.8431 -22.6938 49.9985 -3.93783
RightUpLeg  -4.94569 -18.4756 8.86424
RightLeg  45.127 -11.4311 -12.3431
RightFoot  -21.6789 -0.958986 -8.9604
RightToes  -2.9104e-010 0 -3.6325e-017
Spine  21.7871 -1.46875 -3.3983
Spine1  1.38443 -7.00867 11.5408
HEad  13.4006 -18.6787 1.868
LeftShoulder1  3.09197 -5.31039 -29.0426
LeftArm  75.5897 -34.4453 -90.3455
LeftForeArm  8.30833 -14.3642 -13.999
LeftHand  -0.0396443 4.83952 3.53972
RightShoulder  12.3699 19.291 47.4258
RightArm  26.5941 5.70669 21.6942
RightForeArm  32.5993 30.2052 4.77585
RightHand  0.794973 5.06105 8.49528
LeftUpLeg  -90.2329 25.0744 -61.8232
LeftLeg  124.749 4.13904 -5.9971
LeftFoot  18.5338 6.78744 -25.5104
LeftToes  5.45371e-012 -1.3743e-010 1.09575e-010
697
root  29.5016 36.2224 -50.6681 -23.018 49.8131 -5.59682
RightUpLeg  -6.55846 -17.6578 9.65863
RightLeg  43.9986 -11.7215 -12.1675
RightFoot  -19.827 -0.807032 -9.05124
RightToes  -2.9104e-010 0 -3.6325e-017
Spine  22.2636 -2.28584 -3.38399
Spine1  1.04953 -8.38485 14.3496
HEad  12.8694 -20.6961 2.80558
LeftShoulder1  3.19914 -5.48177 -29.5776
LeftArm  65.8561 -35.8453 -89.983
LeftForeArm  14.929 -11.6186 -15.6309
LeftHand  -0.0294607 5.2349 3.25377
RightShoulder  11.7237 17.9647 47.7526
RightArm  23.8999 6.12483 21.5659
RightForeArm  35.6775 31.757 4.9709
RightHand  0.792399 5.5387 8.06819
LeftUpLeg  -90.8521 26.5356 -62.6156
LeftLeg  124.108 2.34037 -3.68949
LeftFoot  23.1413 5.50804 -18.0955
LeftToes  5.45371e-012 -1.3743e-010 1.09575e-010
698
root  29.3949 36.9702 -51.6584 -18.9734 47.3112 -3.30366
RightUpLeg  -7.97473 -15.1558 8.44079
RightLeg  39.2174 -11.2077 -9.92927
RightFoot  -15.4762 -0.456186 -9.71873
RightToes  -2.9104e-010 0 -3.6325e-017
Spine  21.8378 -2.35982 -2.96974
Spine1  0.947488 -8.57385 14.3743
HEad  11.9048 -21.0016 2.0126
LeftShoulder1  3.18361 -5.48183 -29.4012
LeftArm  65.6236 -36.2855 -89.959
LeftForeArm  13.1002 -11.5419 -15.7552
LeftHand  -0.0255895 5.44135 2.67125
RightShoulder  11.6198 17.9857 47.2728
RightArm  23.5706 7.10962 22.0072
RightForeArm  38.7252 32.9547 5.09161
RightHand  0.815705 5.59713 8.26625
LeftUpLeg  -92.468 28.3096 -67.2225
LeftLeg  123.905 2.75578 -4.28522
LeftFoot  17.2708 4.48852 -17.9011
LeftToes  5.45371e-012 -1.3743e-010 1.09575e-010
699
root  29.1907 38.1984 -52.7989 -12.9755 43.7955 0.507538
RightUpLeg  -8.38581 -13.4436 5.76683
RightLeg  29.5775 -8.95125 -5.70228
RightFoot  -8.50673 0.194261 -10.1312
RightToes  -2.9104e-010 0 -3.6325e-017
Spine  21.3736 -2.10609 -2.57496
Spine1  0.486835 -8.22678 12.8934
HEad  10.9508 -20.2298 1.12196
LeftShoulder1  3.10979 -5.45538 -28.666
LeftArm  63.8692 -36.6066 -90.2279
LeftForeArm  13.6603 -10.9427 -16.0797
LeftHand  -0.0251992 5.54841 2.04873
RightShoulder  12.0605 19.1989 46.4017
RightArm  24.1096 7.17226 22.6628
RightForeArm  40.0083 33.2297 5.08907
RightHand  0.844386 5.37505 8.75715
LeftUpLeg  -94.3329 29.3337 -72.2906
LeftLeg  123.617 2.76547 -4.34083
LeftFoot  10.5923 3.65889 -19.0666
LeftToes  5.45371e-012 -1.3743e-010 1.09575e-010
700
root  28.8969 39.4643 -54.0546 -6.25597 38.7713 4.00906
RightUpLeg  -8.97467 -5.77213 3.25877
RightLeg  17.055 -10.1209 -2.55784
RightFoot  1.41977 0.930192 -8.21017
RightToes  -2.9104e-010 0 -3.6325e-017
Spine  21.1995 -1.14294 -2.22753
Spine1  -1.32471 -6.99008 10.7692
HEad  10.2972 -18.9924 0.694357
LeftShoulder1  3.03627 -5.34039 -28.2759
LeftArm  69.5592 -36.185 -90.3033
LeftForeArm  7.21891 -12.636 -15.3221
LeftHand  -0.0276834 5.24573 1.01764
RightShoulder  12.3584 20.0448 45.8049
RightArm  24.6455 6.28902 22.9473
RightForeArm  38.7684 33.6399 5.25487
RightHand  0.944777 5.39977 9.80621
LeftUpLeg  -97.559 28.6059 -76.1502
LeftLeg  123.221 0.698306 -1.48165
LeftFoot  9.27035 3.5262 -19.5412
LeftToes  5.45371e-012 -1.3743e-010 1.09575e-010
